<svg width="108" height="108" viewBox="0 0 108 108" fill="none" xmlns="http://www.w3.org/2000/svg">
<rect width="108" height="108" rx="12" fill="#EDF6FF"/>
<path d="M89.7174 43.291L80.9672 34.1343C80.6792 33.8329 80.2367 33.7371 79.8499 33.8922C79.463 34.0473 79.2094 34.4223 79.2094 34.8392V38.4696C74.7331 38.6221 70.4664 40.0882 66.8118 42.7395C63.5708 45.0907 61.0669 48.1917 59.4678 51.8011V28.7545H63.1188C63.5356 28.7545 63.9107 28.5009 64.0657 28.114C64.2208 27.7271 64.125 27.2847 63.8236 26.9967L54.7048 18.2826C54.3106 17.9058 53.6894 17.9058 53.2952 18.2826L44.1764 26.9967C43.875 27.2847 43.7791 27.7271 43.9343 28.114C44.0894 28.5009 44.4644 28.7545 44.8812 28.7545H48.5322V51.8009C46.9332 48.1916 44.4292 45.0906 41.1882 42.7394C37.5333 40.0879 33.2672 38.6218 28.7906 38.4695V34.839C28.7906 34.4222 28.537 34.0471 28.1501 33.8921C27.7633 33.737 27.3209 33.8329 27.0328 34.1342L18.2826 43.2909C17.9058 43.6853 17.9058 44.3062 18.2826 44.7006L27.0328 53.8573C27.3209 54.1587 27.7633 54.2548 28.1501 54.0994C28.537 53.9443 28.7906 53.5693 28.7906 53.1525V49.4246C32.7603 49.6967 36.3183 52.0018 38.1881 55.5315L37.8727 55.8469C36.9676 56.752 36.9676 58.2247 37.8727 59.1298C39.0424 60.2994 39.0145 61.7894 38.5985 62.7939C38.1826 63.7983 37.1486 64.8714 35.4945 64.8714C34.2146 64.8714 33.1733 65.9128 33.1733 67.1928V71.1538C33.1733 72.4338 34.2147 73.4752 35.4945 73.4752C37.1488 73.4752 38.1826 74.5484 38.5985 75.5527C39.0145 76.5571 39.0424 78.0471 37.8727 79.2167C36.9676 80.1218 36.9676 81.5945 37.8727 82.4996L40.6737 85.3006C41.5788 86.2057 43.0515 86.2057 43.9566 85.3006C45.1283 84.1289 46.6181 84.1559 47.6219 84.5716C48.6256 84.9874 49.6982 86.0219 49.6982 87.6788C49.6982 88.9588 50.7396 90 52.0194 90H55.9806C57.2606 90 58.3018 88.9586 58.3018 87.6788C58.3018 86.0245 59.3749 84.9907 60.3793 84.5748C61.3835 84.1586 62.8736 84.131 64.0433 85.3006C64.4817 85.739 65.0647 85.9805 65.6847 85.9805C66.3049 85.9805 66.8879 85.739 67.3261 85.3006L70.1273 82.4994C71.0322 81.5945 71.0322 80.1217 70.1273 79.2166C68.9577 78.0469 68.9853 76.5569 69.4015 75.5526C69.8174 74.5482 70.8514 73.4751 72.5055 73.4751C73.7854 73.4751 74.8268 72.4337 74.8268 71.1537V67.1927C74.8268 65.9127 73.7854 64.8713 72.5055 64.8713C70.8514 64.8713 69.8174 63.7982 69.4015 62.7938C68.9855 61.7894 68.9577 60.2994 70.1274 59.1296C71.0324 58.2247 71.0324 56.7519 70.1274 55.8468L69.8119 55.5312C71.682 52.0013 75.2394 49.6963 79.2094 49.4245V53.1523C79.2094 53.5691 79.463 53.9442 79.8499 54.0992C80.2369 54.2545 80.6791 54.1586 80.9672 53.8572L89.7174 44.7004C90.0942 44.3063 90.0942 43.6853 89.7174 43.291ZM47.4255 26.714L54 20.4314L60.5745 26.714H58.4475C57.8841 26.714 57.4273 27.1708 57.4273 27.7343V48.8556C57.0301 48.5379 56.5276 48.3465 55.9806 48.3465H52.0194C51.4724 48.3465 50.9699 48.5379 50.5727 48.8556V27.7343C50.5727 27.1708 50.1159 26.714 49.5525 26.714H47.4255ZM27.7519 47.3595C27.1957 47.3695 26.75 47.8233 26.75 48.3796V50.6082L20.4312 43.9959L26.75 37.3834V39.4778C26.75 39.7503 26.859 40.0115 27.0529 40.2032C27.2467 40.3948 27.5108 40.4998 27.7815 40.498C36.3935 40.4074 44.2369 45.8781 47.1873 53.9168C46.2179 54.1727 44.9678 54.0574 43.9566 53.0462C43.0515 52.1411 41.5788 52.1411 40.6737 53.0462L39.6871 54.0328C37.2203 49.8505 32.6786 47.2715 27.7519 47.3595ZM72.5055 66.9121C72.6603 66.9121 72.7863 67.038 72.7863 67.193V71.154C72.7863 71.3088 72.6604 71.4348 72.5055 71.4348C70.2806 71.4348 68.369 72.7135 67.5163 74.7719C66.6637 76.8304 67.1115 79.0864 68.6845 80.6596C68.794 80.7692 68.794 80.9475 68.6845 81.057L65.8834 83.8581C65.8154 83.926 65.7379 83.9402 65.6849 83.9402C65.6318 83.9402 65.5543 83.9259 65.4863 83.858C63.9131 82.2847 61.6569 81.837 59.5987 82.6898C57.5402 83.5424 56.2616 85.4541 56.2616 87.6789C56.2616 87.8337 56.1357 87.9597 55.9809 87.9597H52.0197C51.8649 87.9597 51.739 87.8337 51.739 87.6789C51.739 85.4519 50.4608 83.5389 48.4031 82.6866C47.7137 82.4011 47.0019 82.2614 46.3008 82.2614C44.9098 82.2614 43.5612 82.8108 42.5141 83.858C42.4045 83.9674 42.2264 83.9674 42.1168 83.858L39.3158 81.057C39.2063 80.9475 39.2063 80.7692 39.3158 80.6596C40.889 79.0864 41.3366 76.8304 40.484 74.7719C39.6313 72.7135 37.7195 71.4348 35.4947 71.4348C35.3399 71.4348 35.214 71.3089 35.214 71.154V67.193C35.214 67.0382 35.3399 66.9121 35.4947 66.9121C37.7195 66.9121 39.6313 65.6334 40.484 63.575C41.3366 61.5164 40.889 59.2604 39.3158 57.6873C39.2063 57.5778 39.2063 57.3996 39.3158 57.29L42.1168 54.489C42.2264 54.3795 42.4045 54.3795 42.5141 54.489C44.0872 56.062 46.3434 56.5096 48.4018 55.6572C50.4602 54.8045 51.7388 52.8927 51.7388 50.668C51.7388 50.5132 51.8648 50.3871 52.0196 50.3871H55.9807C56.1355 50.3871 56.2614 50.5131 56.2614 50.668C56.2614 52.8929 57.5401 54.8045 59.5985 55.6572C61.6571 56.5099 63.913 56.0623 65.4863 54.4888C65.5543 54.4209 65.6318 54.4068 65.6849 54.4068C65.7381 54.4068 65.8154 54.4211 65.8835 54.489L68.6845 57.29C68.794 57.3996 68.794 57.5778 68.6845 57.6873C67.1113 59.2605 66.6636 61.5166 67.5162 63.575C68.3688 65.6334 70.2806 66.9121 72.5055 66.9121ZM81.2498 50.6082V48.3796C81.2498 47.8233 80.8041 47.3695 80.248 47.3595C80.1653 47.358 80.0833 47.3572 80.0009 47.3572C75.1688 47.3572 70.738 49.9202 68.3124 54.0322L67.3263 53.0461C66.8879 52.6076 66.3049 52.3661 65.6847 52.3661C65.0647 52.3661 64.4817 52.6076 64.0433 53.0461C63.0321 54.0576 61.7818 54.1728 60.8125 53.9168C63.7379 45.946 71.4774 40.4967 79.9995 40.4967C80.0723 40.4967 80.1454 40.4972 80.2182 40.4979C80.4947 40.4998 80.7531 40.3947 80.9468 40.203C81.1407 40.0114 81.2497 39.7502 81.2497 39.4776V37.3832L87.5685 43.9957L81.2498 50.6082ZM54 58.4741C48.1004 58.4741 43.3007 63.2737 43.3007 69.1734C43.3007 75.0731 48.1004 79.8729 54 79.8729C59.8998 79.8729 64.6994 75.0731 64.6994 69.1734C64.6994 63.2737 59.8996 58.4741 54 58.4741ZM54 77.8324C49.2256 77.8324 45.3412 73.948 45.3412 69.1734C45.3412 64.3989 49.2256 60.5146 54 60.5146C58.7746 60.5146 62.659 64.3989 62.659 69.1734C62.659 73.948 58.7745 77.8324 54 77.8324Z" fill="#003366"/>
</svg>
